<svg xmlns="http://www.w3.org/2000/svg" viewBox="0 0 2000 1200">
<defs>
 <radialGradient id="bg" cx="70%" cy="28%" r="80%"><stop offset="0" stop-color="#3b352f"/><stop offset=".42" stop-color="#151412"/><stop offset="1" stop-color="#050505"/></radialGradient>
 <linearGradient id="floor" x1="0" y1="0" x2="1" y2="1"><stop stop-color="#1c1a17"/><stop offset="1" stop-color="#090909"/></linearGradient>
 <linearGradient id="stone" x1="0" y1="0" x2="1" y2="1"><stop stop-color="#f3efe7"/><stop offset=".35" stop-color="#d1c9bc"/><stop offset=".66" stop-color="#9e968b"/><stop offset="1" stop-color="#5d5851"/></linearGradient>
 <linearGradient id="gold" x1="0" x2="1"><stop stop-color="#8b6b35"/><stop offset=".5" stop-color="#e0be78"/><stop offset="1" stop-color="#7e5e2e"/></linearGradient>
 <filter id="blur40"><feGaussianBlur stdDeviation="40"/></filter>
 <filter id="shadow"><feDropShadow dx="0" dy="42" stdDeviation="34" flood-color="#000" flood-opacity=".55"/></filter>
</defs>
<rect width="2000" height="1200" fill="url(#bg)"/>
<ellipse cx="1470" cy="270" rx="420" ry="240" fill="#d8be88" opacity=".14" filter="url(#blur40)"/>
<rect y="780" width="2000" height="420" fill="url(#floor)"/>
<path d="M0 790 C420 710 720 770 1040 820 C1380 875 1700 810 2000 740" fill="none" stroke="#bca67d" stroke-opacity=".10" stroke-width="2"/>
<!-- architectural wall -->
<path d="M1250 0H2000V760C1840 700 1680 610 1510 520C1390 455 1300 360 1250 240Z" fill="#171614"/>
<path d="M1260 100 C1490 170 1730 150 1940 100" fill="none" stroke="#a88a59" stroke-opacity=".18" stroke-width="3"/>
<!-- table shadow --> <ellipse cx="1040" cy="860" rx="720" ry="90" fill="#000" opacity=".55" filter="url(#blur40)"/>
<!-- stone top -->
<g filter="url(#shadow)">
<path d="M430 545 C620 450 920 405 1210 455 C1395 488 1530 560 1600 628 C1480 715 1230 750 980 718 C745 688 525 640 350 590Z" fill="url(#stone)" stroke="#eee7dc" stroke-opacity=".42" stroke-width="3"/>
<path d="M390 580 C610 520 800 500 1010 532 C1210 562 1380 620 1535 610" fill="none" stroke="#756f67" stroke-opacity=".38" stroke-width="18"/>
<path d="M480 600 C660 560 790 570 940 600 C1100 633 1220 680 1410 655" fill="none" stroke="#fff" stroke-opacity=".28" stroke-width="7"/>
<path d="M650 500 C690 550 720 610 750 700" fill="none" stroke="#716b62" stroke-opacity=".34" stroke-width="10"/>
<path d="M980 470 C1030 520 1060 585 1070 720" fill="none" stroke="#857d72" stroke-opacity=".28" stroke-width="7"/>
</g>
<!-- sculptural legs -->
<path d="M585 640 L535 1030 C570 1050 640 1050 680 1030 L710 670Z" fill="#25231f"/>
<path d="M1360 650 L1410 1030 C1445 1050 1515 1050 1550 1030 L1510 610Z" fill="#25231f"/>
<path d="M555 650 L575 1035" stroke="#a88b5b" stroke-opacity=".20" stroke-width="3"/>
<path d="M1480 630 L1510 1035" stroke="#a88b5b" stroke-opacity=".20" stroke-width="3"/>
<!-- art object -->
<ellipse cx="1640" cy="640" rx="80" ry="28" fill="#050505" opacity=".35"/>
<path d="M1600 510 C1640 465 1695 465 1720 520 L1698 620 C1670 642 1625 630 1605 600Z" fill="#d5cdc0"/>
<path d="M1618 526 C1645 500 1680 500 1698 530" fill="none" stroke="#766f66" stroke-width="6" opacity=".5"/>
<path d="M160 170 H530" stroke="url(#gold)" stroke-width="6"/>
<text x="160" y="225" fill="#e9e2d7" font-family="Arial, Helvetica, sans-serif" font-size="28" letter-spacing="11">NEROCASA / MARBLE WORKS</text>
</svg>
